<svg width="150" height="145" viewBox="0 0 150 145" fill="none" xmlns="http://www.w3.org/2000/svg">
<path d="M138.554 49.281C127.046 49.281 115.773 48.9395 104.531 49.3527C83.2633 50.1382 67.07 69.4527 69.5355 90.6113C71.7415 109.543 87.409 123.575 106.529 123.691C115.462 123.746 124.399 123.719 133.332 123.684C134.989 123.678 136.645 123.463 138.308 123.343C140.541 136.494 132.649 145.021 121.712 145C86.7499 144.928 51.7884 144.976 16.8268 144.973C6.83147 144.973 0.0085372 138.157 0.00512232 128.175C-0.00170744 100.371 -0.00170744 72.5671 0.00512232 44.7631C0.00512232 34.7814 6.82806 27.9722 16.8302 27.9722C51.7918 27.9653 86.7534 27.9653 121.715 27.9722C131.731 27.9722 138.533 34.7644 138.554 44.7529C138.554 46.3511 138.554 47.9458 138.554 49.281Z" fill="#0B4F6C"/>
<path d="M149.205 76.1867C149.161 66.8367 142.245 59.9387 132.889 59.8874C128.449 59.8601 124.01 59.8806 119.571 59.8806C115.131 59.8806 111.023 59.843 106.748 59.9011C105.092 59.9216 103.411 60.024 101.783 60.3211C88.3484 62.7867 78.8892 75.0666 79.9956 88.5315C81.1327 102.331 92.5282 112.958 106.382 113.05C115.206 113.112 124.03 113.091 132.858 113.057C142.225 113.023 149.154 106.125 149.205 96.7921C149.243 89.9213 149.239 83.054 149.205 76.1867ZM106.604 91.7858C103.627 91.7893 101.205 89.334 101.26 86.3698C101.315 83.474 103.739 81.128 106.642 81.1656C109.551 81.1997 111.904 83.5833 111.904 86.4928C111.904 89.3715 109.49 91.7824 106.604 91.7858Z" fill="#EDEBEA"/>
<path d="M111.904 86.4929C111.904 89.3717 109.49 91.7826 106.604 91.786C103.627 91.7894 101.206 89.3341 101.26 86.37C101.315 83.4742 103.739 81.1282 106.642 81.1657C109.552 81.1999 111.904 83.5835 111.904 86.4929Z" fill="#20BF55"/>
<path d="M49.9927 17.0478C51.9631 16.4126 53.93 15.7706 55.9038 15.1457C71.0591 10.3614 86.2041 5.55327 101.373 0.813417C112.584 -2.69025 123.249 5.5601 122.487 17.2083H50.0541C50.0337 17.1536 50.0132 17.1024 49.9927 17.0478Z" fill="white"/>
</svg>
