<svg width="134" height="134" viewBox="0 0 134 134" fill="none" xmlns="http://www.w3.org/2000/svg">
<path d="M31.497 64.6888C31.497 59.7599 31.1093 54.7974 31.5678 49.9131C33.0031 34.605 44.1162 22.2267 59.1324 18.7459C79.7742 13.9584 100.416 28.6895 102.44 49.8014C102.858 54.1385 102.712 58.5351 102.701 62.9056C102.69 68.5791 102.888 74.2787 102.41 79.915C101.098 95.3906 88.4566 108.685 73.0899 111.142C53.7381 114.232 36.019 102.188 32.0748 83.0459C31.3516 79.5353 31.4635 75.8423 31.3032 72.2275C31.195 69.7183 31.2808 67.2054 31.2808 64.6926C31.3516 64.6926 31.4225 64.6926 31.497 64.6926V64.6888Z" fill="#0B4F6C"/>
<path d="M14.1737 44.6789C18.4906 19.1816 40.7466 -0.00195312 67.0027 -0.00195312C93.7284 -0.00195312 115.675 19.6804 119.806 44.5524C121.502 44.6678 123.232 44.6305 124.902 44.9246C130.106 45.8442 133.905 50.3189 133.949 55.6239C134.013 63.2072 134.02 70.7943 133.949 78.3776C133.89 84.4159 129.025 89.2035 122.978 89.3337C121.96 89.3561 120.939 89.3337 119.94 89.3337C119.19 92.0849 118.59 94.8025 117.718 97.4271C111.004 117.675 92.6361 132.09 71.4576 133.791C70.067 133.903 68.6728 133.989 67.2822 134C64.572 134.022 62.5589 132.112 62.5403 129.577C62.5254 127.027 64.4714 125.125 67.2151 125.084C77.6199 124.931 86.9659 121.733 95.0108 115.121C105.673 106.358 111.295 94.9812 111.6 81.1697C111.809 71.7287 111.734 62.2765 111.623 52.8318C111.347 30.1601 93.6613 11.1403 71.1146 9.14866C47.0208 7.01922 25.7005 24.1552 22.7032 48.0927C22.4497 50.1179 22.3752 52.1766 22.3677 54.2167C22.3342 64.1752 22.3528 74.1336 22.3528 84.0921C22.3528 87.6324 20.6641 89.3635 17.1635 89.33C14.4719 89.304 11.7393 89.4566 9.0999 89.0545C3.9404 88.269 0.111782 83.7198 0.05959 78.5153C-0.0186972 70.839 -0.0261532 63.1588 0.05959 55.4825C0.126693 49.6042 4.99914 44.839 10.8931 44.6789C11.9593 44.6491 13.0255 44.6752 14.1774 44.6752L14.1737 44.6789Z" fill="#EDEBEA"/>
</svg>
