<svg width="142" height="105" viewBox="0 0 142 105" fill="none" xmlns="http://www.w3.org/2000/svg">
<path d="M0.150879 48.4184H141.787C141.818 48.9454 141.88 49.4336 141.88 49.9219C141.88 63.1353 141.903 76.3488 141.88 89.5623C141.865 96.7077 137.749 102.133 131.154 103.706C129.821 104.024 128.411 104.132 127.031 104.132C89.7003 104.155 52.3693 104.155 15.0461 104.148C6.09501 104.148 0.158629 98.1879 0.158629 89.2523C0.158629 76.1938 0.158629 63.1353 0.158629 50.0691C0.158629 49.5654 0.158629 49.0616 0.158629 48.4106L0.150879 48.4184ZM34.8314 88.7951C39.7603 88.7951 44.697 88.8183 49.6259 88.7873C52.2763 88.7718 53.9038 86.8964 53.524 84.4009C53.2373 82.541 51.7493 81.3862 49.4941 81.3862C40.2951 81.3707 31.1038 81.3862 21.9047 81.3862C21.0832 81.3862 20.254 81.3397 19.4402 81.4172C17.7353 81.58 15.9296 83.7112 15.9916 85.4084C16.0536 87.1366 17.5338 88.6013 19.417 88.7796C19.8277 88.8183 20.2385 88.8028 20.6492 88.8028C25.3766 88.8028 30.104 88.8028 34.8314 88.8028V88.7951ZM26.1284 74.3571C28.1821 74.3571 30.2358 74.3571 32.2895 74.3571C32.3902 74.3571 32.4987 74.3571 32.5995 74.3571C34.8392 74.2719 36.3581 72.8227 36.3969 70.7457C36.4356 68.661 34.9632 67.018 32.7467 66.9715C28.4378 66.8863 24.1211 66.9018 19.8045 66.9638C17.8903 66.987 15.9683 69.0872 15.9838 70.9317C15.9993 72.8227 17.6268 74.3106 19.8122 74.3494C21.9202 74.3881 24.0204 74.3571 26.1284 74.3571Z" fill="#0B4F6C"/>
<path d="M141.88 18.5658H0.344735C-0.631746 10.7617 1.33671 4.48431 8.13333 1.39988C10.1173 0.500896 12.4965 0.0669043 14.6974 0.0591545C52.2377 -0.0183439 89.7857 -0.00284424 127.334 0.0126554C135.874 0.0126554 141.787 5.94129 141.88 14.4429C141.896 15.7758 141.88 17.1011 141.88 18.5658Z" fill="#0B4F6C"/>
<path d="M0.220215 40.847V25.665H141.787V40.847H0.220215Z" fill="white"/>
</svg>
