<svg width="151" height="120" viewBox="0 0 151 120" fill="none" xmlns="http://www.w3.org/2000/svg">
<path d="M145.457 25.0085C145.403 11.0815 134.356 0.0432873 120.406 0.0259724C88.8029 -0.00865746 57.1974 -0.00865746 25.5919 0.0259724C11.5669 0.0404015 0.545905 11.1046 0.519933 25.1441C0.485303 41.7001 0.496846 58.2589 0.531476 74.8149C0.534362 76.4713 0.66711 78.1566 0.996093 79.7756C3.44038 91.7489 13.4773 99.9619 25.7131 99.9763C48.8286 100.005 71.9469 99.985 95.0652 99.985H96.1156C97.1891 98.2015 98.1732 96.5624 99.2034 94.8482C99.1024 94.7068 98.961 94.4962 98.8081 94.2942C91.6079 84.7363 96.8746 71.7039 108.712 70.16C112.299 69.6925 115.99 69.984 119.635 70.0186C120.789 70.0302 121.421 69.7964 121.964 68.6104C124.778 62.4491 131.398 58.9429 138.018 60.3223C140.577 60.859 142.967 62.2154 145.466 63.211V62.3424C145.466 49.8958 145.504 37.4522 145.457 25.0085ZM30.3824 84.9816C27.8833 85.0191 25.3842 85.0307 22.8879 84.9758C18.7901 84.8864 15.6012 81.6889 15.5175 77.591C15.4685 75.0948 15.4771 72.5928 15.5147 70.0965C15.5579 67.1674 17.7223 64.9944 20.5158 65.0002C23.2948 65.006 25.4419 67.1992 25.4967 70.1254C25.5256 71.6809 25.5025 73.2334 25.5025 74.9938C27.2686 74.9938 28.8241 74.9707 30.3766 74.9996C33.3 75.0515 35.4932 77.2072 35.4932 79.9863C35.4961 82.7653 33.3028 84.9383 30.3824 84.9816ZM30.4949 24.997C28.8904 25.0403 27.2859 25.0056 25.5025 25.0056C25.5025 26.7977 25.5284 28.3532 25.4967 29.9115C25.4332 32.8204 23.2515 35.0136 20.4754 34.9992C17.7021 34.9848 15.5522 32.7829 15.5118 29.8567C15.48 27.4095 15.4771 24.9623 15.5147 22.518C15.581 18.3192 18.7554 15.1015 22.9283 15.0207C25.4246 14.9716 27.9237 14.9803 30.4228 15.0178C33.323 15.064 35.5163 17.2716 35.4932 20.0507C35.473 22.7691 33.3144 24.9248 30.4949 24.997ZM72.9194 69.9927C61.9302 69.9667 52.987 60.9774 52.9957 49.968C53.0043 38.9614 61.9619 30.0125 72.9771 30.0068C83.9836 30.001 92.9643 38.9528 92.9816 49.9478C93.0018 61.0178 83.9923 70.0186 72.9194 69.9927ZM130.463 29.9259C130.414 32.832 128.209 35.0223 125.433 34.9992C122.656 34.9761 120.53 32.7743 120.481 29.8423C120.455 28.2897 120.475 26.74 120.475 25.0056C118.686 25.0056 117.127 25.0345 115.569 24.9999C112.66 24.9393 110.47 22.7576 110.484 19.9785C110.499 17.1879 112.68 15.0553 115.618 15.0178C118.065 14.9861 120.512 14.9803 122.959 15.0178C127.155 15.0842 130.376 18.2586 130.46 22.4286C130.512 24.9277 130.503 27.4268 130.463 29.9259Z" fill="#0B4F6C"/>
<path d="M92.9815 49.9479C93.0017 61.0179 83.9922 70.0187 72.9193 69.9928C61.9301 69.9668 52.987 60.9775 52.9956 49.9681C53.0043 38.9615 61.9619 30.0126 72.977 30.0068C83.9835 30.0011 92.9642 38.9529 92.9815 49.9479Z" fill="#EDEBEA"/>
<path d="M35.493 79.9863C35.4959 82.7654 33.3027 84.9384 30.3822 84.9817C27.8831 85.0192 25.384 85.0307 22.8877 84.9759C18.7899 84.8864 15.601 81.6889 15.5173 77.5911C15.4683 75.0948 15.4769 72.5928 15.5145 70.0966C15.5577 67.1675 17.7221 64.9945 20.5156 65.0003C23.2946 65.006 25.4417 67.1992 25.4965 70.1255C25.5254 71.6809 25.5023 73.2335 25.5023 74.9938C27.2684 74.9938 28.8239 74.9708 30.3764 74.9996C33.2998 75.0516 35.493 77.2073 35.493 79.9863Z" fill="white"/>
<path d="M130.462 29.9259C130.413 32.8319 128.209 35.0222 125.433 34.9991C122.656 34.976 120.529 32.7742 120.48 29.8422C120.454 28.2896 120.475 26.7399 120.475 25.0055C118.685 25.0055 117.127 25.0344 115.569 24.9998C112.66 24.9392 110.47 22.7575 110.484 19.9784C110.498 17.1879 112.68 15.0552 115.618 15.0177C118.065 14.986 120.512 14.9802 122.959 15.0177C127.155 15.0841 130.376 18.2585 130.46 22.4285C130.512 24.9276 130.503 27.4267 130.462 29.9259Z" fill="white"/>
<path d="M35.4933 20.0507C35.4731 22.7692 33.3145 24.9249 30.495 24.997C28.8905 25.0403 27.286 25.0057 25.5025 25.0057C25.5025 26.7978 25.5285 28.3532 25.4968 29.9116C25.4333 32.8205 23.2516 35.0137 20.4754 34.9993C17.7022 34.9849 15.5522 32.783 15.5118 29.8568C15.4801 27.4096 15.4772 24.9624 15.5147 22.5181C15.5811 18.3193 18.7555 15.1016 22.9284 15.0208C25.4246 14.9717 27.9237 14.9804 30.4229 15.0179C33.3231 15.064 35.5163 17.2717 35.4933 20.0507Z" fill="white"/>
<path d="M133.256 79.5101C132.766 79.1234 132.206 78.7973 131.796 78.3384C129.961 76.2924 130.059 73.3287 131.975 71.4385C133.848 69.5944 136.82 69.4213 138.751 71.274C142.277 74.659 145.726 78.1336 149.128 81.6456C150.597 83.1607 150.88 85.0538 150.014 87.0017C149.177 88.8775 147.651 89.9539 145.605 89.9596C133.845 90 122.085 90.0087 110.328 89.9596C107.549 89.9481 105.431 87.5962 105.489 84.8719C105.547 82.1506 107.699 80.018 110.554 80.0036C117.474 79.9689 124.394 79.992 131.314 79.992C131.871 79.992 132.428 79.992 132.985 79.992C133.077 79.8304 133.167 79.6717 133.259 79.5101H133.256Z" fill="#EDEBEA"/>
<path d="M122.625 109.982C123.332 110.738 123.802 111.205 124.232 111.71C125.964 113.745 125.86 116.645 124.004 118.5C122.143 120.362 119.153 120.57 117.231 118.726C113.664 115.306 110.178 111.8 106.753 108.238C105.29 106.718 105.062 104.804 105.977 102.874C106.917 100.891 108.58 99.9822 110.753 99.9822C119.598 99.9822 128.44 99.9822 137.285 99.9822C139.885 99.9822 142.488 99.9706 145.088 99.985C148.234 100.005 150.487 102.135 150.459 105.029C150.43 107.86 148.202 109.961 145.14 109.97C138.327 109.99 131.51 109.976 124.694 109.976C124.125 109.976 123.56 109.976 122.622 109.976L122.625 109.982Z" fill="white"/>
</svg>
