<svg width="120" height="121" viewBox="0 0 120 121" fill="none" xmlns="http://www.w3.org/2000/svg">
<path d="M120 63.6419C119.693 65.9629 119.522 68.3111 119.038 70.5911C118.396 73.6425 117.502 76.6392 116.73 79.6633C116.587 80.2367 116.314 80.4824 115.679 80.4824C106.422 80.462 97.166 80.462 87.9163 80.462C87.8003 80.462 87.6911 80.421 87.4453 80.3664C87.6091 78.7144 87.773 77.0625 87.9368 75.4105C88.8106 66.6318 88.8379 57.8327 88.2849 49.0336C88.2372 48.2417 88.4351 47.8731 89.1314 47.4977C91.9097 46.0163 93.7051 43.6544 94.7836 40.6577C97.0568 40.6577 99.3231 40.6577 101.583 40.6577C106.265 40.6577 110.955 40.6782 115.638 40.6372C116.464 40.6372 116.874 40.8352 117.126 41.6816C118.505 46.1802 119.461 50.7606 119.795 55.464C119.823 55.8462 119.925 56.2217 119.993 56.5971V63.6419H120Z" fill="white"/>
<path d="M61.1778 0.00682632C65.8333 1.38574 68.5161 4.96956 70.8439 8.86739C74.1546 14.4104 76.1684 20.4653 77.7931 26.7455C75.2605 28.2814 73.3833 30.343 72.3456 33.1281C72.2637 33.3534 71.8268 33.5923 71.5538 33.5923C61.3689 33.606 51.184 33.5923 41.006 33.5787C40.9719 33.5787 40.9377 33.5445 40.7603 33.4421C40.9923 32.2953 41.2176 31.0871 41.4838 29.8856C42.9925 23.1617 44.9584 16.588 48.2624 10.4989C49.2795 8.62164 50.4946 6.83315 51.7711 5.11292C53.5733 2.68274 55.8806 0.866943 58.8432 0H61.1846L61.1778 0.00682632Z" fill="#0B4F6C"/>
<path d="M58.8294 120.232C54.9589 119.112 52.4195 116.348 50.2829 113.146C46.4396 107.392 44.2143 100.954 42.4121 94.2851C44.8559 92.7423 46.6513 90.7081 47.6616 88.0048C47.7503 87.7728 48.1872 87.5407 48.4602 87.5407C58.57 87.527 68.6798 87.5407 78.7896 87.5611C78.8237 87.5611 78.8578 87.6021 79.0558 87.725C78.8851 88.5851 78.7145 89.5203 78.5097 90.4487C76.9874 97.1726 74.9941 103.733 71.7107 109.835C70.9325 111.276 70.0587 112.668 69.1167 114.006C67.0961 116.867 64.6523 119.222 61.1777 120.232H58.8362H58.8294Z" fill="#0B4F6C"/>
<path d="M39.6271 40.7122H72.1272C72.2364 40.9579 72.3456 41.2036 72.448 41.4562C73.9498 45.081 76.5848 47.4702 80.3393 48.5556C81.0287 48.7536 81.2813 49.013 81.3154 49.7229C81.8615 59.662 81.7045 69.5807 80.4348 79.4652C80.3256 80.2912 80.0321 80.4755 79.2744 80.4755C69.0827 80.455 58.8978 80.455 48.7061 80.4755C48.0576 80.4755 47.7709 80.257 47.5251 79.6563C46.0438 76.0315 43.4157 73.6218 39.6339 72.5842C38.8421 72.3658 38.7806 71.8948 38.767 71.3009C38.6919 65.007 38.5212 58.7132 38.5963 52.4193C38.6373 49.0676 39.1015 45.7158 39.3882 42.3641C39.4359 41.8248 39.5452 41.2856 39.6271 40.7053V40.7122Z" fill="#0B4F6C"/>
<path d="M32.4388 40.7328C32.234 43.0879 32.0155 45.3747 31.838 47.6615C31.1895 55.8258 31.1895 63.9969 31.8176 72.1612C31.8722 72.837 31.7083 73.1919 31.0803 73.5196C28.4931 74.8712 26.6432 76.9396 25.5715 79.6633C25.3326 80.2708 25.0322 80.4824 24.3769 80.4824C17.7417 80.4551 11.0997 80.4551 4.46449 80.4824C3.74773 80.4824 3.46785 80.2367 3.24258 79.5677C-0.982912 66.9185 -1.07165 54.2557 2.9354 41.5383C3.15384 40.8556 3.4542 40.6372 4.16413 40.6372C13.2978 40.6577 22.4382 40.6509 31.5718 40.6577C31.838 40.6577 32.0974 40.6986 32.4319 40.7259L32.4388 40.7328Z" fill="white"/>
<path d="M113.911 33.6262C109.242 33.6262 104.907 33.6262 100.579 33.6262C98.9409 33.6262 97.3026 33.6058 95.6643 33.6331C95.0567 33.6467 94.7086 33.517 94.4423 32.8685C92.7904 28.8478 89.8346 26.3494 85.5545 25.5507C84.6944 25.3869 84.5646 24.8612 84.394 24.2127C82.5918 17.3523 80.2504 10.7035 76.5096 4.62121C75.9635 3.73378 75.3832 2.88049 74.6528 1.75415C92.4286 6.73054 105.317 17.2636 113.911 33.6194V33.6262Z" fill="white"/>
<path d="M45.3882 118.478C27.9401 113.59 15.2091 103.378 6.59424 87.5817C7.22909 87.5475 7.60453 87.5134 7.97998 87.5134C13.366 87.5134 18.7519 87.5271 24.1379 87.4929C24.957 87.4929 25.3257 87.7318 25.667 88.51C27.3667 92.3942 30.3021 94.8176 34.4934 95.5821C35.3126 95.7323 35.6471 96.0804 35.8587 96.8586C37.7496 103.903 40.248 110.702 44.296 116.832C44.5964 117.283 44.8967 117.734 45.3882 118.471V118.478Z" fill="white"/>
<path d="M45.3064 1.85669C38.6234 11.5364 35.6949 22.3971 33.5378 33.5786H6.28711C6.43729 33.21 6.5192 32.8823 6.68986 32.6093C8.34866 29.9197 10.0075 27.2233 11.7277 24.5747C11.9325 24.2607 12.5605 24.0013 12.9428 24.0559C20.9296 25.2368 27.3463 19.257 26.7934 11.1473C26.7661 10.7036 26.9777 10.0278 27.3122 9.80935C32.7801 6.1641 38.7053 3.54962 45.3132 1.85669H45.3064Z" fill="white"/>
<path d="M113.481 87.5954C112.006 89.9642 110.627 92.1213 109.317 94.3194C108.511 95.6778 107.665 96.2649 105.835 96.1215C98.3535 95.5413 92.6604 101.514 93.2474 109.023C93.2952 109.624 93.3293 110.102 92.6877 110.511C87.2266 114.02 81.3833 116.641 75.1031 118.28C75.0348 118.3 74.9529 118.266 74.7822 118.246C81.1853 108.996 84.1138 98.4766 86.2914 87.5886H113.481V87.5954Z" fill="white"/>
<path d="M15.0863 17.1614C12.4308 17.1819 10.3147 15.1135 10.2874 12.4717C10.2601 9.77532 12.3899 7.58407 15.0521 7.59772C17.6666 7.60455 19.7964 9.74119 19.8101 12.3761C19.8237 15.0111 17.7144 17.1477 15.0863 17.1682V17.1614Z" fill="#0B4F6C"/>
<path d="M41.2995 83.9773C41.2995 86.6327 39.2106 88.7489 36.5757 88.7625C33.8998 88.7762 31.7495 86.5986 31.7836 83.9158C31.8177 81.2809 33.968 79.1579 36.5757 79.1784C39.197 79.1988 41.2995 81.3355 41.2995 83.9773Z" fill="#0B4F6C"/>
<path d="M109.726 107.856C109.726 110.491 107.603 112.634 104.989 112.641C102.388 112.655 100.231 110.511 100.204 107.89C100.169 105.214 102.327 103.057 105.016 103.078C107.658 103.091 109.733 105.201 109.726 107.863V107.856Z" fill="white"/>
<path d="M78.7077 37.1147C78.7281 34.4661 80.8238 32.3841 83.4724 32.3909C86.1142 32.3909 88.2167 34.5002 88.2236 37.142C88.2304 39.8179 86.0255 42.0092 83.3837 41.9546C80.7556 41.9 78.6872 39.7565 78.7077 37.1147Z" fill="white"/>
</svg>
