<svg width="144" height="146" viewBox="0 0 144 146" fill="none" xmlns="http://www.w3.org/2000/svg">
<path d="M93.855 113.65C93.9423 110.919 93.0355 108.703 90.7668 107.102C88.6611 105.971 86.3696 106.301 84.1236 106.263C83.5811 106.252 83.0385 106.244 82.4998 106.241C81.9573 106.233 81.4148 106.229 80.8722 106.222H63.1357C60.9694 106.233 58.803 106.233 56.6367 106.271C55.4492 106.29 54.33 106.654 53.2412 107.109C51.0027 108.657 50.096 110.831 50.1567 113.51C50.2022 115.524 50.1377 117.543 50.1226 119.557C50.1415 125.794 50.1984 132.032 50.1529 138.269C50.1301 141.634 51.4922 143.975 54.6828 145.178C55.0622 145.253 55.4378 145.326 55.8172 145.401H88.1907C88.5701 145.326 88.9457 145.25 89.3213 145.178C92.4664 143.888 93.8246 141.896 93.836 138.55C93.8512 132.221 93.8664 125.889 93.8853 119.557C93.8702 117.588 93.7905 115.619 93.855 113.65ZM75.5987 127.229V135.37H68.451V127.327C64.5053 123.442 65.5562 119.709 67.7643 117.581C70.2037 115.228 73.9483 115.338 76.3423 117.713C79.0322 120.384 78.8083 123.75 75.5987 127.229Z" fill="#0B4F6C"/>
<path d="M75.5986 127.229V135.371H68.4509V127.328C64.5052 123.443 65.5561 119.709 67.7642 117.581C70.2036 115.229 73.9482 115.339 76.3422 117.714C79.0321 120.385 78.8082 123.75 75.5986 127.229Z" fill="#20BF55"/>
<path d="M53.2409 107.11C51.0025 108.661 50.092 110.832 50.1565 113.51C50.202 115.525 50.1375 117.539 50.1223 119.558C36.1152 119.558 22.1081 119.558 8.09716 119.558C3.67725 119.558 0.725586 116.606 0.725586 112.194C0.725586 85.8297 0.725586 59.4734 0.725586 33.1132C0.725586 32.548 0.771113 31.9789 0.793876 31.4136C1.35538 31.4553 1.91687 31.5388 2.48217 31.5388C48.8248 31.5464 95.1713 31.5464 141.514 31.5388C142.075 31.5388 142.637 31.4591 143.202 31.4136C143.225 32.0282 143.274 32.6428 143.274 33.2536C143.274 59.5189 143.274 85.7841 143.274 112.049C143.274 116.667 140.383 119.558 135.759 119.558C121.797 119.558 107.839 119.558 93.8775 119.558C93.8624 117.589 93.7865 115.619 93.8472 113.65C93.9344 110.915 93.0277 108.703 90.7589 107.102C90.7248 104.128 90.998 101.149 90.463 98.1902C88.9758 89.9612 81.7218 83.3219 73.4739 82.6731C65.2107 82.0244 57.3497 87.1993 54.3905 95.0603C52.9033 99.0059 53.2447 103.058 53.2295 107.11H53.2409ZM31.4259 93.0305C31.4259 89.2442 30.6444 86.5429 28.8043 83.9707C25.1508 78.8565 19.0578 78.9551 15.5143 82.8515C10.8515 87.977 10.6125 96.6044 14.7555 102.147C18.4394 107.076 24.9497 107.076 28.6033 102.181C30.6709 99.4119 31.5587 96.3198 31.4221 93.0305H31.4259ZM70.8371 56.5255C70.8371 60.8619 71.6338 63.457 73.7774 66.2872C76.8922 70.3998 82.841 70.8589 86.4491 67.1826C91.5898 61.9432 91.8212 52.5229 86.8436 46.8472C83.2128 42.7081 77.1805 43.0723 73.7964 47.4049C71.63 50.1783 70.6512 53.2741 70.8333 56.5255H70.8371ZM112.293 56.7987C112.293 60.6115 113.029 63.2787 114.896 65.8775C118.094 70.3277 124.206 71.1017 128.03 67.0726C133.152 61.6738 133.209 52.0031 127.981 46.5285C124.381 42.7574 118.515 43.243 115.313 47.3101C113.101 50.1252 112.191 53.2817 112.289 56.7987H112.293ZM93.5513 92.5904C93.4906 94.605 93.7713 96.5513 94.4428 98.4444C95.5355 101.502 97.3452 103.953 100.384 105.304C103.837 106.837 108.112 105.304 110.616 101.696C114.202 96.5285 114.027 88.6372 110.218 83.5913C106.959 79.2738 101.162 78.8527 97.3641 82.6921C94.6553 85.4313 93.6575 88.8496 93.5513 92.5942V92.5904ZM50.1451 56.4003C50.35 54.086 49.5305 51.6807 48.4037 49.3778C45.3268 43.0761 38.0387 42.0707 33.5733 47.4353C29.2975 52.576 29.6504 61.2337 33.5278 66.1772C37.629 71.409 44.6136 70.5554 47.8725 65.1984C49.466 62.5806 50.2058 59.7655 50.1451 56.4003ZM57.7747 61.4614C57.5129 61.5979 57.3535 61.7004 57.179 61.7725C55.2479 62.5806 54.3943 63.9274 54.6978 65.6916C54.9785 67.323 56.4847 68.427 58.4803 68.4384C60.4645 68.4498 62.4525 68.4687 64.4368 68.4308C66.5044 68.3928 67.8285 66.9284 67.764 64.8607C67.7071 63.0131 66.5007 62.1253 64.8807 61.4879C64.8807 60.953 64.8807 60.437 64.8807 59.9248C64.8807 56.2865 64.911 52.6443 64.8693 49.0059C64.8389 46.3274 62.4488 44.4684 60.2293 45.4131C58.579 46.115 56.9552 46.9041 55.411 47.8109C54.1666 48.5393 53.3661 49.7268 53.6127 51.2406C53.8631 52.7695 54.8913 53.718 56.3747 54.1695C56.8148 54.3023 57.3346 54.067 57.7709 54.5109V61.4614H57.7747ZM23.4246 61.4955C23.4246 60.8885 23.4246 60.3725 23.4246 59.8565C23.4246 56.1727 23.4511 52.485 23.4132 48.8011C23.3904 46.3237 21.0154 44.495 18.8908 45.3676C17.1912 46.0619 15.5446 46.9079 13.9398 47.8109C12.4677 48.6379 11.929 50.3452 12.4298 52.0107C12.8016 53.2475 13.8791 53.938 15.5105 54.0063C15.8292 54.0177 16.1782 53.9229 16.5159 54.2491V61.4803C16.2199 61.5942 16.0037 61.6776 15.7836 61.7611C13.9815 62.4326 12.9799 63.916 13.2417 65.5209C13.53 67.2812 14.9148 68.4194 16.8611 68.4422C18.8908 68.4649 20.9244 68.4725 22.9541 68.4422C24.9383 68.4118 26.2207 67.0877 26.3193 65.1984C26.4293 63.1724 25.2039 62.2277 23.4208 61.4993L23.4246 61.4955ZM122.173 97.5453C121.922 97.6705 121.683 97.8184 121.425 97.9171C119.695 98.5886 118.652 100.072 118.895 101.54C119.183 103.293 120.685 104.503 122.643 104.518C124.677 104.534 126.71 104.553 128.74 104.507C130.409 104.469 131.828 103.225 132.151 101.616C132.424 100.258 131.46 98.6607 129.973 98.0119C129.719 97.9019 129.464 97.7957 129.279 97.7198C128.994 97.2418 129.085 96.8055 129.081 96.3881C129.074 92.6056 129.089 88.8231 129.074 85.0443C129.062 82.6921 127.643 81.1821 125.337 81.5274C122.855 81.8992 120.541 83.0184 118.694 84.7332C117.149 86.1673 117.942 89.1873 119.915 89.9461C120.602 90.2079 121.361 90.2951 122.169 90.481V97.5453H122.173ZM98.0774 61.4538C97.5728 61.6662 97.1707 61.8104 96.7913 62.0001C95.2054 62.7892 94.606 64.1854 95.0233 66.0596C95.2965 67.2812 96.6357 68.3928 98.0584 68.427C100.278 68.4801 102.501 68.4763 104.724 68.427C106.185 68.3966 107.187 67.5885 107.79 66.2834C108.374 65.0125 107.983 63.8971 107.19 62.8575C106.648 62.1443 105.752 61.9735 104.956 61.4007C104.956 60.9568 104.956 60.4446 104.956 59.9286C104.956 56.1954 104.982 52.4584 104.944 48.7252C104.922 46.4451 102.695 44.5709 100.786 45.3145C98.9462 46.0315 97.1441 46.9079 95.4558 47.9285C93.1188 49.3398 93.3654 52.5001 95.7707 53.8053C96.4915 54.196 97.311 54.1239 98.0736 54.3933V61.4538H98.0774ZM47.5311 97.7236C47.2086 97.1697 47.3338 96.6385 47.33 96.1301C47.3186 92.3931 47.33 88.6561 47.3186 84.9191C47.311 82.6504 46.0211 81.258 43.7789 81.5198C41.2028 81.8157 38.8848 83.0336 37.0637 84.8433C35.5158 86.3798 36.1721 88.7737 38.1032 89.8664C38.8241 90.2723 39.636 90.2344 40.4251 90.4431V97.5529C40.1557 97.6932 39.9509 97.8146 39.7346 97.9057C37.8073 98.7024 37.0144 100.076 37.371 102.018C37.6442 103.498 39.1048 104.511 41.0207 104.522C43.0543 104.534 45.0878 104.553 47.1213 104.511C49.1283 104.469 50.4486 103.039 50.4296 101.036C50.4107 99.0742 49.0259 98.3041 47.5311 97.7236Z" fill="#E3EDF0"/>
<path d="M143.187 7.28811C143.168 2.6178 140.508 0 135.865 0C93.2931 0 50.7178 0 8.14246 0.00379391C7.48232 0.00379391 6.80701 0 6.16583 0.128993C2.77787 0.823279 0.827799 3.40693 0.816417 7.28811C0.78986 15.3274 0.805035 23.3705 0.801241 31.4136C1.36274 31.4553 1.92424 31.535 2.48574 31.535C48.8322 31.5426 95.1748 31.5426 141.517 31.535C142.083 31.535 142.644 31.4553 143.206 31.4136C143.202 23.3705 143.221 15.3312 143.187 7.28811ZM27.628 20.9007H18.2305V11.1313H27.628V20.9007ZM47.0073 20.8969H37.6022V11.1807H47.0073V20.8969Z" fill="#0B4F6C"/>
<path d="M47.0077 11.1807H37.6025V20.8969H47.0077V11.1807Z" fill="#20BF55"/>
<path d="M27.6285 11.1309H18.231V20.9002H27.6285V11.1309Z" fill="#20BF55"/>
<path d="M53.2409 107.11C53.2561 103.058 52.9146 99.0062 54.4019 95.0605C57.3573 87.2033 65.2221 82.0246 73.4852 82.6734C81.7332 83.3221 88.9872 89.9577 90.4744 98.1905C91.0093 101.15 90.7362 104.132 90.7703 107.102C88.6647 105.972 86.3694 106.302 84.1272 106.264C83.0421 106.245 81.9608 106.234 80.8758 106.222C80.8644 104.617 80.8834 103.016 80.8341 101.412C80.7013 96.9764 77.1464 93.0346 72.9275 92.6134C68.6063 92.1809 64.6037 95.0871 63.4693 99.4614C62.8889 101.692 63.291 103.969 63.143 106.218C60.9767 106.234 58.8104 106.234 56.6441 106.268C55.4528 106.287 54.3374 106.651 53.2485 107.106L53.2409 107.11Z" fill="#738394"/>
<path d="M63.1356 106.222C63.2836 103.972 62.8852 101.696 63.4619 99.4653C64.5963 95.0871 68.6027 92.1848 72.9201 92.6173C77.1428 93.0384 80.6977 96.9803 80.8266 101.415C80.876 103.016 80.857 104.621 80.8684 106.226C74.9575 106.226 69.0465 106.226 63.1318 106.226L63.1356 106.222Z" fill="#E3EDF0"/>
<path d="M31.4226 93.0303C31.5592 96.3196 30.6714 99.4116 28.6037 102.181C24.9502 107.072 18.4399 107.075 14.756 102.147C10.613 96.6041 10.8482 87.9768 15.5147 82.8512C19.0583 78.9549 25.1513 78.8562 28.8048 83.9704C30.6449 86.5427 31.4226 89.244 31.4264 93.0303H31.4226ZM22.0061 86.9145C21.1449 86.8841 20.6441 87.2977 20.2002 87.9161C18.4209 90.4087 18.2919 95.0221 19.9726 97.5906C21.1411 99.3775 22.4993 99.3661 23.5199 97.5147C24.9502 94.9197 24.935 92.2108 24.0548 89.445C23.6906 88.3031 22.9698 87.4912 22.0099 86.9145H22.0061Z" fill="#20BF55"/>
<path d="M70.8368 56.5257C70.6547 53.2743 71.6336 50.1746 73.7999 47.4051C77.1841 43.0724 83.2164 42.712 86.8472 46.8474C91.8248 52.5231 91.5933 61.9434 86.4526 67.1828C82.8446 70.8591 76.8957 70.4 73.7809 66.2874C71.6374 63.4571 70.8368 60.8621 70.8406 56.5257H70.8368ZM80.4923 62.9563C81.1525 62.8236 81.585 62.4593 81.9492 62.0154C83.8917 59.6708 83.9448 54.1507 82.0516 51.715C81.1108 50.5047 79.965 50.5389 79.0355 51.7984C77.1689 54.3366 77.1347 59.3407 78.9786 61.8485C79.3466 62.3531 79.8057 62.7553 80.4923 62.9525V62.9563Z" fill="#20BF55"/>
<path d="M112.293 56.7983C112.191 53.2813 113.101 50.121 115.317 47.3097C118.519 43.2426 124.385 42.757 127.985 46.5282C133.213 52.0028 133.152 61.6735 128.034 67.0722C124.21 71.1013 118.102 70.3274 114.9 65.8771C113.029 63.2783 112.293 60.6112 112.297 56.7983H112.293ZM121.937 62.9596C122.598 62.8382 123.026 62.474 123.394 62.0339C125.451 59.5754 125.401 53.9301 123.303 51.5361C122.446 50.5535 121.346 50.5649 120.583 51.6917C118.614 54.594 118.633 57.6899 119.893 60.8464C120.268 61.7873 120.826 62.603 121.937 62.9596Z" fill="#20BF55"/>
<path d="M93.5511 92.587C93.6573 88.8424 94.6551 85.4241 97.364 82.6849C101.162 78.8492 106.963 79.2666 110.218 83.584C114.027 88.6299 114.201 96.5213 110.616 101.689C108.112 105.297 103.836 106.829 100.384 105.297C97.345 103.946 95.5353 101.495 94.4427 98.4372C93.7674 96.5478 93.4904 94.5978 93.5511 92.5832V92.587ZM103.351 99.1163C106.511 97.5912 107.293 91.6537 105.172 88.3757C103.867 86.3612 102.622 86.4181 101.435 88.5275C100.342 90.4738 100.141 92.568 100.532 94.6888C100.866 96.4909 101.348 98.3006 103.351 99.1163Z" fill="#20BF55"/>
<path d="M50.1453 56.3967C50.206 59.7619 49.4662 62.577 47.8728 65.1948C44.61 70.5556 37.6254 71.4054 33.528 66.1736C29.6544 61.2301 29.2978 52.5686 33.5735 47.4317C38.039 42.0671 45.3271 43.0725 48.4039 49.3742C49.5307 51.6771 50.3502 54.0824 50.1453 56.3967ZM37.3447 56.7609C37.3371 58.7565 37.7924 60.6003 39.1316 62.1369C39.9094 63.0285 40.7023 63.0057 41.5483 62.1596C43.8474 59.8567 43.893 53.8662 41.6014 51.5139C40.6719 50.5579 39.9776 50.5199 39.0975 51.5215C37.7848 53.0087 37.3636 54.826 37.3485 56.7647L37.3447 56.7609Z" fill="#20BF55"/>
<path d="M57.7745 61.461V54.5106C57.3344 54.0667 56.8146 54.3019 56.3783 54.1691C54.8949 53.7176 53.8668 52.7692 53.6164 51.2402C53.3698 49.7226 54.1703 48.5389 55.4147 47.8105C56.9588 46.9038 58.5864 46.1146 60.233 45.4128C62.4486 44.4681 64.8388 46.3271 64.8729 49.0056C64.9146 52.644 64.8843 56.2861 64.8843 59.9245C64.8843 60.4367 64.8843 60.9526 64.8843 61.4876C66.5043 62.1249 67.7108 63.0165 67.7677 64.8604C67.8322 66.928 66.5081 68.3925 64.4404 68.4304C62.4562 68.4684 60.4682 68.4494 58.484 68.438C56.4884 68.4266 54.9822 67.3226 54.7014 65.6912C54.3979 63.9271 55.2515 62.5764 57.1827 61.7721C57.3572 61.7 57.5165 61.5976 57.7783 61.461H57.7745Z" fill="#20BF55"/>
<path d="M23.4249 61.4918C25.2042 62.2165 26.4297 63.165 26.3234 65.1909C26.221 67.0765 24.9425 68.4044 22.9582 68.4347C20.9285 68.4689 18.895 68.4613 16.8652 68.4347C14.9227 68.4119 13.538 67.2738 13.2458 65.5134C12.984 63.9086 13.9856 62.4252 15.7877 61.7536C16.0078 61.6702 16.2278 61.5867 16.52 61.4729V54.2417C16.1823 53.9154 15.8333 54.0103 15.5146 53.9989C13.8794 53.9306 12.8057 53.2401 12.4339 52.0033C11.9331 50.3377 12.4719 48.6305 13.9439 47.8034C15.5487 46.9043 17.1953 46.0582 18.895 45.3601C21.0233 44.4875 23.3945 46.3162 23.4173 48.7936C23.4514 52.4775 23.4287 56.1652 23.4287 59.8491C23.4287 60.3651 23.4287 60.881 23.4287 61.4881L23.4249 61.4918Z" fill="#20BF55"/>
<path d="M122.173 97.5411V90.4768C121.364 90.2909 120.609 90.2074 119.919 89.9419C117.942 89.1869 117.153 86.1669 118.697 84.729C120.545 83.0104 122.859 81.895 125.34 81.5232C127.647 81.1779 129.066 82.6879 129.077 85.0401C129.096 88.8226 129.077 92.6052 129.085 96.3839C129.085 96.8012 128.998 97.2375 129.282 97.7156C129.464 97.7915 129.722 97.8977 129.977 98.0077C131.464 98.6565 132.427 100.25 132.154 101.612C131.832 103.221 130.413 104.465 128.744 104.503C126.71 104.548 124.676 104.529 122.647 104.514C120.689 104.499 119.187 103.289 118.898 101.536C118.656 100.068 119.699 98.5844 121.429 97.9129C121.687 97.8142 121.926 97.6663 122.176 97.5411H122.173Z" fill="#20BF55"/>
<path d="M98.0775 61.4497V54.3893C97.3111 54.1237 96.4954 54.192 95.7746 53.8012C93.3692 52.4923 93.1226 49.3358 95.4597 47.9244C97.148 46.9039 98.9501 46.0275 100.79 45.3104C102.698 44.5668 104.926 46.441 104.948 48.7212C104.986 52.4544 104.96 56.1914 104.96 59.9246C104.96 60.4406 104.96 60.9527 104.96 61.3966C105.756 61.9657 106.652 62.1364 107.194 62.8535C107.987 63.8968 108.378 65.0084 107.794 66.2794C107.194 67.5845 106.189 68.3926 104.728 68.423C102.509 68.4723 100.282 68.4723 98.0623 68.423C96.6396 68.3888 95.3003 67.2772 95.0272 66.0555C94.6061 64.1814 95.2093 62.789 96.7951 61.9961C97.1745 61.8064 97.5767 61.6622 98.0813 61.4497H98.0775Z" fill="#20BF55"/>
<path d="M47.5308 97.7199C49.0294 98.2965 50.4104 99.0705 50.4294 101.032C50.4521 103.035 49.1318 104.465 47.1211 104.507C45.0875 104.549 43.054 104.526 41.0204 104.519C39.1045 104.511 37.6439 103.498 37.3707 102.015C37.0141 100.072 37.8032 98.6987 39.7343 97.902C39.9506 97.8109 40.1554 97.6895 40.4248 97.5491V90.4393C39.6357 90.2307 38.8238 90.2724 38.1029 89.8627C36.1718 88.77 35.5155 86.376 37.0634 84.8395C38.8845 83.0298 41.2026 81.812 43.7786 81.516C46.0208 81.2581 47.3108 82.6466 47.3183 84.9154C47.3335 88.6524 47.3183 92.3894 47.3297 96.1264C47.3297 96.6348 47.2083 97.1659 47.5308 97.7199Z" fill="#20BF55"/>
<path d="M22.0057 86.9146C22.9656 87.4912 23.6864 88.3031 24.0506 89.4451C24.9346 92.2109 24.946 94.9197 23.5157 97.5148C22.4951 99.3662 21.1369 99.3776 19.9684 97.5906C18.2915 95.026 18.4167 90.4126 20.196 87.9162C20.6399 87.294 21.1407 86.8804 22.0019 86.9146H22.0057Z" fill="#E3EDF0"/>
<path d="M80.4927 62.9565C79.806 62.7592 79.3469 62.357 78.9789 61.8524C77.1389 59.3409 77.1692 54.3367 79.0358 51.8024C79.9653 50.539 81.1111 50.5086 82.052 51.7189C83.9452 54.1508 83.892 59.6747 81.9496 62.0194C81.5815 62.4633 81.1528 62.8237 80.4927 62.9603V62.9565Z" fill="#E3EDF0"/>
<path d="M121.938 62.9558C120.826 62.5954 120.268 61.7835 119.893 60.8426C118.633 57.6861 118.614 54.5903 120.583 51.6879C121.346 50.5611 122.446 50.5497 123.304 51.5324C125.398 53.9301 125.451 59.5717 123.395 62.0301C123.027 62.4702 122.598 62.8344 121.938 62.9558Z" fill="#E3EDF0"/>
<path d="M103.351 99.1164C101.347 98.3045 100.862 96.491 100.532 94.6889C100.141 92.5643 100.338 90.4701 101.435 88.5276C102.622 86.4144 103.867 86.3575 105.172 88.3758C107.296 91.6538 106.515 97.595 103.351 99.1164Z" fill="#E3EDF0"/>
<path d="M37.3481 56.7639C37.3633 54.8253 37.7882 53.008 39.0971 51.5208C39.9773 50.523 40.6716 50.5609 41.6011 51.5132C43.8926 53.8654 43.8471 59.856 41.548 62.1589C40.7019 63.0049 39.909 63.0277 39.1313 62.1361C37.792 60.5996 37.3367 58.7558 37.3443 56.7602L37.3481 56.7639Z" fill="#E3EDF0"/>
</svg>
